<svg width="1200" height="800" viewBox="0 0 1200 800" fill="none" xmlns="http://www.w3.org/2000/svg">
  <defs>
    <linearGradient id="g1" x1="120" y1="90" x2="1080" y2="710" gradientUnits="userSpaceOnUse">
      <stop stop-color="#00F5FF" stop-opacity="0.35"/>
      <stop offset="0.55" stop-color="#8B5CF6" stop-opacity="0.30"/>
      <stop offset="1" stop-color="#00F5FF" stop-opacity="0.15"/>
    </linearGradient>
    <radialGradient id="g2" cx="0" cy="0" r="1" gradientUnits="userSpaceOnUse" gradientTransform="translate(610 350) rotate(90) scale(380 520)">
      <stop stop-color="#FFFFFF" stop-opacity="0.10"/>
      <stop offset="1" stop-color="#FFFFFF" stop-opacity="0"/>
    </radialGradient>
    <filter id="blur" x="-30%" y="-30%" width="160%" height="160%" color-interpolation-filters="sRGB">
      <feGaussianBlur stdDeviation="18"/>
    </filter>
  </defs>

  <rect width="1200" height="800" fill="#050505"/>
  <rect x="120" y="90" width="960" height="620" rx="36" fill="url(#g1)"/>
  <rect x="170" y="150" width="860" height="500" rx="28" fill="#070708" stroke="rgba(255,255,255,0.10)"/>

  <g opacity="0.95" filter="url(#blur)">
    <circle cx="260" cy="210" r="90" fill="#00F5FF" fill-opacity="0.18"/>
    <circle cx="980" cy="580" r="120" fill="#8B5CF6" fill-opacity="0.16"/>
  </g>

  <rect x="210" y="200" width="300" height="18" rx="9" fill="rgba(255,255,255,0.14)"/>
  <rect x="210" y="235" width="520" height="12" rx="6" fill="rgba(255,255,255,0.10)"/>
  <rect x="210" y="260" width="440" height="12" rx="6" fill="rgba(255,255,255,0.10)"/>

  <g>
    <rect x="210" y="320" width="300" height="140" rx="18" fill="rgba(255,255,255,0.06)" stroke="rgba(255,255,255,0.10)"/>
    <rect x="540" y="320" width="300" height="140" rx="18" fill="rgba(255,255,255,0.06)" stroke="rgba(255,255,255,0.10)"/>
    <rect x="870" y="320" width="120" height="140" rx="18" fill="rgba(0,245,255,0.06)" stroke="rgba(0,245,255,0.25)"/>
  </g>

  <rect x="210" y="500" width="780" height="16" rx="8" fill="rgba(255,255,255,0.10)"/>
  <rect x="210" y="530" width="620" height="12" rx="6" fill="rgba(255,255,255,0.08)"/>
  <rect x="210" y="555" width="680" height="12" rx="6" fill="rgba(255,255,255,0.08)"/>

  <rect x="170" y="150" width="860" height="500" rx="28" fill="url(#g2)"/>

  <text x="210" y="665" fill="rgba(255,255,255,0.55)" font-family="Inter, system-ui, sans-serif" font-size="18" font-weight="600">
    Premium Dropshipping Storefront Preview
  </text>
</svg>

